<?xml version="1.0" encoding="utf-8"?>
<!-- Generator: Adobe Illustrator 15.0.0, SVG Export Plug-In . SVG Version: 6.00 Build 0)  -->
<!DOCTYPE svg PUBLIC "-//W3C//DTD SVG 1.1//EN" "http://www.w3.org/Graphics/SVG/1.1/DTD/svg11.dtd">
<svg version="1.1" id="Слой_1" xmlns="http://www.w3.org/2000/svg" xmlns:xlink="http://www.w3.org/1999/xlink" x="0px" y="0px"
	 width="283.46px" height="283.46px" viewBox="0 0 283.46 283.46" enable-background="new 0 0 283.46 283.46" xml:space="preserve">
<g>
	<path fill="#496A8E" d="M141.499,277.146c-1.78,0-3.5-0.661-4.817-1.862c-2.82-2.576-10.313-9.418-12.706-10.73
		c-4.403-2.417-9.39-4.407-16.18-6.455c-5.758-1.736-11.749-3.142-17.805-4.178l-0.785-0.135c-5.157-0.88-10.028-1.716-14.958-2.146
		c-8.625-0.755-17.759-1.744-26.335-4.81c-10.858-3.882-20.469-11.768-29.386-24.117c-7.637-10.569-11.672-23.345-11.672-36.946
		c0-4.044,0.391-8.149,1.163-12.192c0.244-1.221,0.542-2.568,0.907-4.069c2.719-10.474,6.679-20.761,11.482-29.848
		c0.074-0.137,0.15-0.274,0.232-0.408c4.726-7.651,7.125-17.119,7.125-28.144c0-13.858-5.577-26.805-15.701-36.458l-2.62-2.389
		c-1.412-1.288-2.231-3.088-2.268-4.985c-0.04-1.897,0.709-3.728,2.067-5.072l47.689-47.149c2.654-2.626,6.929-2.75,9.739-0.279
		l0.375,0.33c8.97,8.428,20.495,12.983,32.632,12.983c11.284,0,22.205-4.018,30.75-11.309c0.737-0.665,3.49-3.832,5.584-6.355
		c1.358-1.635,3.309-2.624,5.538-2.565c2.143,0.014,4.165,0.986,5.499,2.638c1.732,2.149,4.696,5.056,6.122,6.391
		c8.525,7.224,19.393,11.2,30.619,11.2c12.134,0,23.664-4.555,32.459-12.827l0.566-0.559c2.77-2.719,7.255-2.714,10.017,0.014
		l46.933,46.339c1.389,1.372,2.137,3.256,2.066,5.192c-0.071,1.939-0.959,3.761-2.447,5.03l-1.547,1.319
		c-11.442,9.681-17.995,23.712-17.995,38.512c0,9.319,2.592,18.436,7.497,26.355c2.703,4.365,4.63,8.981,6.485,13.45l0.134,0.319
		c4.287,10.283,6.738,18.844,7.72,26.937c0.312,2.563,0.47,5.122,0.47,7.601c0,6.086-1.008,12.91-2.846,19.22
		c-3.736,12.822-11.717,22.603-17.753,28.553c-4.29,4.231-9.029,7.624-14.082,10.083c-2.421,1.179-5.075,2.235-8.117,3.23
		c-3.841,1.257-7.621,2.498-11.947,3.076c-2.077,0.276-4.164,0.462-6.248,0.643c-1.832,0.162-3.66,0.319-5.481,0.56
		c-6.506,0.85-12.158,1.741-17.29,2.725c-9.397,1.802-16.863,3.867-23.488,6.497c-5.093,2.023-9.615,4.393-13.441,7.051
		c-2.251,1.563-6.924,5.377-8.528,7.254c-1.247,1.46-3.049,2.356-4.981,2.474C141.791,277.141,141.644,277.146,141.499,277.146z
		 M32.875,146.31c-4.259,8.104-7.783,17.286-10.192,26.562c-0.289,1.192-0.547,2.35-0.746,3.348
		c-0.599,3.133-0.908,6.365-0.908,9.549c0,10.681,3.127,20.656,9.042,28.851c7.192,9.958,14.606,16.2,22.669,19.079
		c6.971,2.491,15.063,3.355,22.751,4.026c5.52,0.481,10.918,1.403,16.135,2.294l0.785,0.138c6.637,1.134,13.206,2.677,19.522,4.583
		c7.788,2.344,13.628,4.692,18.933,7.609c2.452,1.344,5.839,4.088,10.512,8.235c2.276-1.929,4.567-3.676,5.905-4.604
		c4.718-3.274,10.207-6.164,16.306-8.584c7.483-2.972,15.769-5.279,26.079-7.255c5.413-1.037,11.342-1.971,18.128-2.858
		c2.023-0.266,4.058-0.444,6.09-0.624c1.868-0.167,3.74-0.327,5.605-0.575c3.011-0.402,5.874-1.339,9.191-2.426
		c2.607-0.855,4.667-1.671,6.495-2.56c3.663-1.785,7.144-4.286,10.336-7.437c6.861-6.766,11.885-14.763,14.15-22.529
		c1.478-5.086,2.297-10.543,2.297-15.364c0-1.922-0.125-3.921-0.372-5.94c-0.821-6.809-2.972-14.205-6.755-23.287l-0.134-0.321
		c-1.65-3.963-3.357-8.06-5.475-11.475c-6.264-10.116-9.571-21.747-9.571-33.635c0-17.041,6.805-33.28,18.839-45.341l-37.001-36.541
		c-10.799,8.336-23.95,12.832-37.709,12.832c-14.684,0-28.891-5.223-40.01-14.705c-0.077-0.067-0.153-0.134-0.229-0.204
		c-0.179-0.167-0.891-0.833-1.857-1.78c-0.768,0.825-1.465,1.526-1.99,1.976c-11.116,9.488-25.332,14.716-40.023,14.716
		c-13.637,0-26.678-4.415-37.353-12.545L24.35,67.056c11.4,12.081,17.592,27.56,17.592,44.05
		C41.939,124.635,38.891,136.478,32.875,146.31z"/>
</g>
<g>
	<rect x="180.617" y="70.864" fill="#496A8E" width="31.979" height="45.72"/>
	<polygon fill="#496A8E" points="100.689,103.29 116.576,103.29 118.103,103.29 162.099,103.29 162.099,70.864 118.103,70.864 
		116.576,70.864 70.864,70.864 70.864,100.298 70.864,103.29 70.864,163.411 100.689,163.411 	"/>
	<polygon fill="#496A8E" points="181.023,184.558 181.023,190.317 181.023,212.597 212.596,212.597 212.596,190.317 
		212.596,184.558 212.596,132.586 181.023,132.586 	"/>
	<polygon fill="#496A8E" points="117.19,178.303 70.864,178.303 70.864,212.597 117.19,212.597 123.31,212.597 168.572,212.597 
		168.572,178.303 123.31,178.303 	"/>
</g>
</svg>
